<svg xmlns="http://www.w3.org/2000/svg" xmlns:xlink="http://www.w3.org/1999/xlink" width="678.863" height="825.125" viewBox="0 0 678.863 825.125">
  <defs>
    <clipPath id="clip-path">
      <rect x="-59" y="-30" width="678.863" height="825.125" fill="none"/>
    </clipPath>
  </defs>
  <g id="Scroll_Group_1" data-name="Scroll Group 1" transform="translate(59 30)" clip-path="url(#clip-path)" style="isolation: isolate">
    <g id="Group_7" data-name="Group 7" transform="translate(-168.568 -81.938)">
      <text id="for" transform="translate(397.568 859.063)" fill="#040404" font-size="56" font-family="MonotypeCorsiva, Monotype Corsiva"><tspan x="0" y="0">for</tspan></text>
      <text id="Life" transform="translate(466.568 859.063)" fill="#040404" font-size="56" font-family="MonotypeCorsiva, Monotype Corsiva"><tspan x="0" y="0">Life</tspan></text>
      <g id="Group_6" data-name="Group 6" transform="translate(36.568 115.063)">
        <g id="Group_5" data-name="Group 5" transform="translate(-746.969 49.05)">
          <g id="Path_3" data-name="Path 3" transform="translate(1007 139.64)" fill="#fbfbf9">
            <path d="M 157.8313903808594 360.28857421875 C 155.3087921142578 358.6176452636719 144.4595947265625 351.5365600585938 128.9529724121094 342.9032897949219 C 112.6214447021484 333.8108215332031 87.62544250488281 321.081298828125 61.28937911987305 312.0729064941406 C 34.94257736206055 303.0608825683594 7.45171070098877 298.429443359375 -10.97082233428955 296.131103515625 C -28.22042846679688 293.9790344238281 -40.96429061889648 293.4140930175781 -44.19554901123047 293.2982177734375 L -111.7704391479492 -42.01067352294922 C -110.3978652954102 -42.7798957824707 -106.8045120239258 -44.75299835205078 -101.4676895141602 -47.39103698730469 C -95.10102081298828 -50.53816986083984 -84.88028717041016 -55.30223846435547 -72.34442138671875 -60.12603759765625 C -58.26148986816406 -65.54510498046875 -44.18622207641602 -69.93376922607422 -30.50968933105469 -73.17017364501953 C -13.42922306060791 -77.2120361328125 3.072577238082886 -79.45750427246094 18.53724479675293 -79.84410858154297 C 20.2727108001709 -79.88750457763672 22.05164337158203 -79.90943908691406 23.82471084594727 -79.90943908691406 C 38.96250915527344 -79.90943908691406 55.56257629394531 -78.31937408447266 73.16378021240234 -75.18323516845703 C 87.25550842285156 -72.67243957519531 102.0151138305664 -69.17097473144531 117.0327072143555 -64.77616882324219 C 142.6028442382812 -57.29317092895508 160.2637786865234 -49.71970367431641 160.4391784667969 -49.64410400390625 L 160.8371124267578 -49.47250366210938 L 161.2344512939453 -49.64557266235352 C 161.4082489013672 -49.72123718261719 178.9075164794922 -57.30337142944336 203.7847137451172 -64.78650665283203 C 218.3873748779297 -69.17903900146484 232.637451171875 -72.67850494384766 246.138916015625 -75.18763732910156 C 262.9971618652344 -78.32064819335938 278.7279052734375 -79.90943908691406 292.8910217285156 -79.90943908691406 C 292.8918762207031 -79.90943908691406 292.8910522460938 -79.90943908691406 292.8919067382812 -79.90943908691406 C 294.5511169433594 -79.90943908691406 296.2131042480469 -79.88750457763672 297.8316955566406 -79.84410858154297 C 312.2467041015625 -79.45803833007812 327.3319091796875 -77.11750793457031 342.6683654785156 -72.8875732421875 C 354.9499816894531 -69.50017547607422 367.4189147949219 -64.90057373046875 379.7286987304688 -59.21643829345703 C 390.6878356933594 -54.15604019165039 399.4888305664062 -49.15517044067383 404.9421691894531 -45.85103988647461 C 409.5098571777344 -43.08350372314453 412.5549011230469 -41.01240539550781 413.7182922363281 -40.20295715332031 L 343.7011413574219 292.9753112792969 C 342.6602478027344 292.659912109375 340.8887023925781 292.1780700683594 338.4165649414062 291.6953735351562 C 334.6461791992188 290.9591674804688 328.4481201171875 290.0815734863281 320.3323669433594 290.0815734863281 C 304.5269775390625 290.0815734863281 287.6029052734375 293.2613525390625 270.0301818847656 299.5326843261719 C 259.4185180664062 303.3197631835938 246.8843841552734 308.8922424316406 232.7760467529297 316.0953063964844 C 221.5018463134766 321.8514404296875 209.1996459960938 328.6572265625 196.2111053466797 336.3237609863281 C 176.3643798828125 348.0384216308594 160.9075164794922 358.2419738769531 157.8313903808594 360.28857421875 Z" stroke="none"/>
            <path d="M 23.8360595703125 -78.90951538085938 C 23.83236694335938 -78.90951538085938 23.82833862304688 -78.90951538085938 23.82464599609375 -78.90951538085938 L 23.8245849609375 -78.90951538085938 C 22.05697631835938 -78.909423828125 20.28643798828125 -78.8875732421875 18.562255859375 -78.84445190429688 C 3.1737060546875 -78.45977783203125 -13.25103759765625 -76.22509765625 -30.25582885742188 -72.20263671875 C -43.884033203125 -68.97891235351562 -57.91134643554688 -64.6065673828125 -71.94830322265625 -59.20697021484375 C -84.44937133789062 -54.39822387695312 -94.64276123046875 -49.6483154296875 -100.9926147460938 -46.51043701171875 C -105.6428833007812 -44.21240234375 -108.9665832519531 -42.42010498046875 -110.6458129882812 -41.49203491210938 L -43.37069702148438 292.3291015625 C -39.15609741210938 292.499755859375 -26.95675659179688 293.1289367675781 -10.84701538085938 295.1387634277344 C 7.6221923828125 297.4429626464844 35.18557739257812 302.0870971679688 61.61297607421875 311.1267700195312 C 88.01904296875 320.1590270996094 113.0722503662109 332.9172973632812 129.4393768310547 342.0296325683594 C 144.0241088867188 350.1495361328125 154.5051116943359 356.9045715332031 157.8295745849609 359.0894775390625 C 161.9156799316406 356.3816833496094 176.8280639648438 346.6034851074219 195.7028503417969 335.4625549316406 C 208.7087707519531 327.7857055664062 221.029052734375 320.969970703125 232.3213195800781 315.2046203613281 C 246.4679107666016 307.9820251464844 259.0419921875 302.3923645019531 269.6941223144531 298.5908203125 C 287.3749694824219 292.2809753417969 304.412109375 289.0815734863281 320.3323669433594 289.0815734863281 C 331.7009887695312 289.0815734863281 339.4059753417969 290.7418518066406 342.9442138671875 291.7145080566406 L 412.6026306152344 -39.75698852539062 C 409.0620727539062 -42.178955078125 396.8774108886719 -50.19256591796875 379.3532409667969 -58.28836059570312 C 367.0881958007812 -63.95455932617188 354.665771484375 -68.5394287109375 342.4311218261719 -71.91571044921875 C 327.1625671386719 -76.12918090820312 312.1481628417969 -78.46035766601562 297.8049011230469 -78.84457397460938 C 296.1965637207031 -78.88763427734375 294.5436401367188 -78.90951538085938 292.8921203613281 -78.90951538085938 C 278.7940979003906 -78.90951538085938 263.131103515625 -77.32757568359375 246.3382415771484 -74.20758056640625 C 232.8757019042969 -71.706298828125 218.6647033691406 -68.2171630859375 204.0999755859375 -63.8370361328125 C 179.2733764648438 -56.370849609375 161.8071746826172 -48.80422973632812 161.6337738037109 -48.728759765625 L 160.839111328125 -48.38262939453125 L 160.0431823730469 -48.725830078125 C 159.8683776855469 -48.80123901367188 142.2637176513672 -56.35137939453125 116.751708984375 -63.81777954101562 C 101.7687072753906 -68.2027587890625 87.04450988769531 -71.69598388671875 72.98825073242188 -74.2003173828125 C 55.44906616210938 -77.32513427734375 38.91217041015625 -78.9095458984375 23.8360595703125 -78.90951538085938 M 23.82449340820312 -80.9095458984375 C 90.44755554199219 -80.91311645507812 160.8351135253906 -50.5623779296875 160.8351135253906 -50.5623779296875 C 160.8351287841797 -50.5623779296875 234.2675170898438 -82.54718017578125 297.8585205078125 -80.84384155273438 C 361.4495239257812 -79.1405029296875 414.8322448730469 -40.64163208007812 414.8322448730469 -40.64163208007812 L 344.450439453125 294.2720947265625 C 344.450439453125 294.2720947265625 316.7119140625 283.9347534179688 270.3663024902344 300.4744873046875 C 224.0207214355469 317.01416015625 157.8317718505859 361.4905700683594 157.8317718505859 361.4905700683594 C 157.8317718505859 361.4905700683594 111.8131103515625 330.41162109375 60.96571350097656 313.0191040039062 C 10.11831665039062 295.6264953613281 -45.01934814453125 294.2720947265625 -45.01934814453125 294.2720947265625 L -112.8939514160156 -42.52365112304688 C -112.8939514160156 -42.52365112304688 -49.62094116210938 -79.1405029296875 18.51223754882812 -80.84384155273438 C 20.27545166015625 -80.88790893554688 22.0545654296875 -80.909423828125 23.82449340820312 -80.9095458984375 Z" stroke="none" fill="#333"/>
          </g>
          <g id="Group_4" data-name="Group 4">
            <g id="Path_4" data-name="Path 4" transform="translate(1007 139.636)" fill="#040404">
              <path d="M 158.8482666015625 359.8345336914062 L 158.8482666015625 -47.59097290039062 C 162.1810607910156 -49.04892730712891 179.2878723144531 -56.38163757324219 202.3804931640625 -63.62818145751953 C 217.4470977783203 -68.35612487792969 232.0759887695312 -72.12274169921875 245.8607635498047 -74.82346343994141 C 263.0718383789062 -78.19545745849609 279.0042724609375 -79.90518188476562 293.2156066894531 -79.90518188476562 C 294.7666015625 -79.90518188476562 296.3196716308594 -79.88462829589844 297.8317260742188 -79.84412384033203 C 312.2557678222656 -79.45779418945312 327.3506469726562 -77.11457061767578 342.6971130371094 -72.87963104248047 C 354.9842224121094 -69.48896026611328 367.4582214355469 -64.88512420654297 379.7726745605469 -59.19612884521484 C 390.7305908203125 -54.13379287719727 399.5284423828125 -49.13257217407227 404.9792785644531 -45.82851791381836 C 409.5310668945312 -43.06939697265625 412.55908203125 -41.00964736938477 413.71826171875 -40.20302200317383 L 343.7011108398438 292.9753112792969 C 342.6602172851562 292.659912109375 340.8887023925781 292.1780700683594 338.4165954589844 291.6953735351562 C 334.6461486816406 290.9591369628906 328.4480895996094 290.0816040039062 320.3323669433594 290.0816040039062 C 304.5270080566406 290.0816040039062 287.6028747558594 293.2613830566406 270.0302124023438 299.5326538085938 C 246.0144348144531 308.1033630371094 216.6351013183594 324.3292541503906 196.2177734375 336.431884765625 C 178.0016784667969 347.2297058105469 163.4856872558594 356.7542114257812 158.8482666015625 359.8345336914062 Z" stroke="none"/>
              <path d="M 293.2154846191406 -78.90518188476562 C 279.0728759765625 -78.90518188476562 263.2103881835938 -77.20272827148438 246.068603515625 -73.84518432617188 C 232.3233947753906 -71.15289306640625 217.7341003417969 -67.39712524414062 202.7059936523438 -62.6822509765625 C 180.7955322265625 -55.80807495117188 164.2822265625 -48.85488891601562 159.8482666015625 -46.93551635742188 L 159.8482666015625 357.9737548828125 C 165.6864929199219 354.1242065429688 179.1771850585938 345.3703918457031 195.7078857421875 335.5715942382812 C 216.1629943847656 323.4465942382812 245.603271484375 307.1883239746094 269.694091796875 298.5908203125 C 287.3749389648438 292.2809143066406 304.412109375 289.08154296875 320.3323974609375 289.08154296875 C 331.7009887695312 289.08154296875 339.4059753417969 290.7418823242188 342.9442443847656 291.7145385742188 L 412.6028442382812 -39.7576904296875 C 411.1793212890625 -40.73275756835938 408.361328125 -42.61114501953125 404.3868408203125 -45.01824951171875 C 398.952880859375 -48.30917358398438 390.1836547851562 -53.289794921875 379.265625 -58.32879638671875 C 367.0097045898438 -63.9852294921875 354.5975341796875 -68.56185913085938 342.373779296875 -71.93145751953125 C 327.1252746582031 -76.13491821289062 312.1300964355469 -78.46078491210938 297.804931640625 -78.84451293945312 C 296.3020935058594 -78.88479614257812 294.7579956054688 -78.90518188476562 293.2154846191406 -78.90518188476562 M 293.2154846191406 -80.90518188476562 C 294.7701416015625 -80.90518188476562 296.317626953125 -80.88507080078125 297.8584899902344 -80.84378051757812 C 361.4494934082031 -79.14047241210938 414.832275390625 -40.64163208007812 414.832275390625 -40.64163208007812 L 344.450439453125 294.2720947265625 C 344.450439453125 294.2720947265625 316.7119750976562 283.9347534179688 270.3663330078125 300.4744873046875 C 224.0207214355469 317.0142211914062 157.8482666015625 361.7048645019531 157.8482666015625 361.7048645019531 L 157.8482666015625 -48.242919921875 C 157.8482666015625 -48.242919921875 230.60986328125 -80.90518188476562 293.2154846191406 -80.90518188476562 Z" stroke="none" fill="#040404"/>
            </g>
            <path id="Path_5" data-name="Path 5" d="M59.754,4.452c31.25,0,66.24,19.623,66.24,19.623S89.222,8.581,57.972,9.687A260.959,260.959,0,0,0,.924,18.3l.38-6.336A246.446,246.446,0,0,1,59.754,4.452Z" transform="translate(1250 97)" fill="#fff"/>
            <path id="Path_6" data-name="Path 6" d="M57.561,4.608c31.25,0,66.673,18.146,66.673,18.146S88.811,8.192,57.561,9.3A275.084,275.084,0,0,0-1.531,18.445l.357-5.2S26.311,4.608,57.561,4.608Z" transform="translate(1250 132)" fill="#fff"/>
            <path id="Path_7" data-name="Path 7" d="M54.048,4.884c11.219,0,24.247,2.321,35.446,5.489a194.2,194.2,0,0,1,33.878,13.175S93.071,11.146,62.84,9.5s-61.4,8.182-61.4,8.182l.507-5.787S22.8,4.884,54.048,4.884Z" transform="translate(1244 165.68)" fill="#fff"/>
            <path id="Path_8" data-name="Path 8" d="M52.759,4.576c11.219,0,25.537,2.629,36.736,5.8C108.658,15.8,120.2,23.952,120.2,23.952S93.071,11.146,62.84,9.5s-60.392,6.28-60.392,6.28V10.442S21.509,4.576,52.759,4.576Z" transform="translate(1239 199.877)" fill="#fff"/>
            <path id="Path_9" data-name="Path 9" d="M57.025,8.61c25.3,3.924,46.607,17.527,46.607,17.527S78.881,12.917,48.65,11.271.419,15.117.419,15.117L-.637,11.738S31.729,4.686,57.025,8.61Z" transform="translate(1248.172 233.877)" fill="#fff"/>
            <path id="Path_10" data-name="Path 10" d="M57.543,8.934a88.85,88.85,0,0,1,33.9,16.045s-13.81-9.5-35.344-13.511S5.3,8.934,5.3,8.934l5.55-2.292S37.4,4.35,57.543,8.934Z" transform="translate(1251.172 270.061)" fill="#fff"/>
            <path id="Path_11" data-name="Path 11" d="M49.818,7.672A100.005,100.005,0,0,1,91.439,24.979a119.249,119.249,0,0,0-43.19-13.567C23.879,8.865-6.042,14.79-6.042,14.79V9.482S25.447,3.8,49.818,7.672Z" transform="translate(1242.936 301.061)" fill="#fff"/>
            <path id="Path_12" data-name="Path 12" d="M42.047,11.56A87.043,87.043,0,0,1,76.673,28.692s-17.325-10.426-38-13.9-44.891-.27-44.891-.27l-2.1-4.171S21.369,6.758,42.047,11.56Z" transform="translate(1256.948 335.056)" fill="#fff"/>
            <path id="Path_13" data-name="Path 13" d="M51.191,4.151c27.417,3.234,51.381,18.758,51.381,18.758S74.248,12.067,47.317,9.973s-56.771,5.34-56.771,5.34l.459-4.964S23.774.917,51.191,4.151Z" transform="translate(1223.948 376.056)" fill="#fff"/>
          </g>
          <g id="Group_3" data-name="Group 3" transform="translate(1016.32 -68.689)">
            <path id="Path_2" data-name="Path 2" d="M37.27,0C57.854,0,74.54,17.034,74.54,38.046S57.854,76.093,37.27,76.093,0,59.059,0,38.046,16.686,0,37.27,0Z" transform="translate(104.008 126.397)" fill="#333"/>
            <path id="Path_1" data-name="Path 1" d="M241.718-119.746s-5,71.813-24.695,122.589S150.1,72.707,150.1,72.707,120.884,54.74,83.623,53.2,3.44,62.6,3.44,62.6,119.928,75.82,115.294,136.829-5.1,347.8-5.1,347.8l156.2-96.915s4.546-.872,4.546,45.271-3.287,155.792-3.287,155.792S199.346,327.7,220.583,186.573,241.718-119.746,241.718-119.746Z" transform="translate(-2.544 132.689)" fill="#040404"/>
          </g>
          <g id="Group_2" data-name="Group 2" transform="translate(1020.32 -78.689)">
            <path id="Path_2-2" data-name="Path 2" d="M42.733,0c23.6,0,42.733,19.531,42.733,43.623S66.334,87.247,42.733,87.247,0,67.716,0,43.623,19.132,0,42.733,0Z" transform="translate(93.081 120.82)" fill="#9a901f"/>
            <path id="Path_1-2" data-name="Path 1" d="M237.941-136.175S230.487-46.157,210.794,4.619s-60.7,68.088-60.7,68.088S120.884,54.74,83.623,53.2,3.44,62.6,3.44,62.6,119.928,75.82,115.294,136.829-7.691,346.466-7.691,346.466L148.4,253.085s7.236-3.07,7.236,43.072-9.3,157.472-9.3,157.472S199.346,327.7,220.583,186.573,237.941-136.175,237.941-136.175Z" transform="translate(-2.544 132.689)" fill="#9a901f"/>
          </g>
          <g id="Group_1" data-name="Group 1" transform="translate(-2.453 6)">
            <ellipse id="Ellipse_1" data-name="Ellipse 1" cx="24" cy="24.5" rx="24" ry="24.5" transform="translate(1204 225)" fill="#bd3226"/>
            <path id="Path_1-3" data-name="Path 1" d="M2.551-132.689S5.91-81.511,17.333-52.059s35.359,38.51,35.359,38.51a92.389,92.389,0,0,1,37.4-9.652c21.614-.9,44.6,4.738,44.6,4.738s-64.5,6.719-61.817,42.107,65.4,115.571,65.4,115.571L51.825,87.7s-3.584-4.368-3.584,22.4,3.584,84.662,3.584,84.662S26.516,138.208,14.2,56.345,2.551-132.689,2.551-132.689Z" transform="translate(1168.5 286)" fill="#bd3226"/>
          </g>
        </g>
        <text id="EduLife" transform="translate(132 683)" fill="#bd3226" font-size="176" font-family="MonotypeCorsiva, Monotype Corsiva"><tspan x="0" y="0">EduLife</tspan></text>
        <text id="Education_" data-name="Education " transform="translate(143 745)" fill="#040404" font-size="56" font-family="MonotypeCorsiva, Monotype Corsiva"><tspan x="0" y="0">Education </tspan></text>
      </g>
      <g id="Group_5-2" data-name="Group 5" transform="translate(-711.401 164.113)">
        <g id="Path_3-2" data-name="Path 3" transform="translate(1007 139.64)" fill="#fbfbf9">
          <path d="M 157.8313903808594 360.28857421875 C 155.3087921142578 358.6176452636719 144.4595947265625 351.5365600585938 128.9529724121094 342.9032897949219 C 112.6214447021484 333.8108215332031 87.62544250488281 321.081298828125 61.28937911987305 312.0729064941406 C 34.94257736206055 303.0608825683594 7.45171070098877 298.429443359375 -10.97082233428955 296.131103515625 C -28.22042846679688 293.9790344238281 -40.96429061889648 293.4140930175781 -44.19554901123047 293.2982177734375 L -111.7704391479492 -42.01067352294922 C -110.3978652954102 -42.7798957824707 -106.8045120239258 -44.75299835205078 -101.4676895141602 -47.39103698730469 C -95.10102081298828 -50.53816986083984 -84.88028717041016 -55.30223846435547 -72.34442138671875 -60.12603759765625 C -58.26148986816406 -65.54510498046875 -44.18622207641602 -69.93376922607422 -30.50968933105469 -73.17017364501953 C -13.42922306060791 -77.2120361328125 3.072577238082886 -79.45750427246094 18.53724479675293 -79.84410858154297 C 20.2727108001709 -79.88750457763672 22.05164337158203 -79.90943908691406 23.82471084594727 -79.90943908691406 C 38.96250915527344 -79.90943908691406 55.56257629394531 -78.31937408447266 73.16378021240234 -75.18323516845703 C 87.25550842285156 -72.67243957519531 102.0151138305664 -69.17097473144531 117.0327072143555 -64.77616882324219 C 142.6028442382812 -57.29317092895508 160.2637786865234 -49.71970367431641 160.4391784667969 -49.64410400390625 L 160.8371124267578 -49.47250366210938 L 161.2344512939453 -49.64557266235352 C 161.4082489013672 -49.72123718261719 178.9075164794922 -57.30337142944336 203.7847137451172 -64.78650665283203 C 218.3873748779297 -69.17903900146484 232.637451171875 -72.67850494384766 246.138916015625 -75.18763732910156 C 262.9971618652344 -78.32064819335938 278.7279052734375 -79.90943908691406 292.8910217285156 -79.90943908691406 C 292.8918762207031 -79.90943908691406 292.8910522460938 -79.90943908691406 292.8919067382812 -79.90943908691406 C 294.5511169433594 -79.90943908691406 296.2131042480469 -79.88750457763672 297.8316955566406 -79.84410858154297 C 312.2467041015625 -79.45803833007812 327.3319091796875 -77.11750793457031 342.6683654785156 -72.8875732421875 C 354.9499816894531 -69.50017547607422 367.4189147949219 -64.90057373046875 379.7286987304688 -59.21643829345703 C 390.6878356933594 -54.15604019165039 399.4888305664062 -49.15517044067383 404.9421691894531 -45.85103988647461 C 409.5098571777344 -43.08350372314453 412.5549011230469 -41.01240539550781 413.7182922363281 -40.20295715332031 L 343.7011413574219 292.9753112792969 C 342.6602478027344 292.659912109375 340.8887023925781 292.1780700683594 338.4165649414062 291.6953735351562 C 334.6461791992188 290.9591674804688 328.4481201171875 290.0815734863281 320.3323669433594 290.0815734863281 C 304.5269775390625 290.0815734863281 287.6029052734375 293.2613525390625 270.0301818847656 299.5326843261719 C 259.4185180664062 303.3197631835938 246.8843841552734 308.8922424316406 232.7760467529297 316.0953063964844 C 221.5018463134766 321.8514404296875 209.1996459960938 328.6572265625 196.2111053466797 336.3237609863281 C 176.3643798828125 348.0384216308594 160.9075164794922 358.2419738769531 157.8313903808594 360.28857421875 Z" stroke="none"/>
          <path d="M 23.8360595703125 -78.90951538085938 C 23.83236694335938 -78.90951538085938 23.82833862304688 -78.90951538085938 23.82464599609375 -78.90951538085938 L 23.8245849609375 -78.90951538085938 C 22.05697631835938 -78.909423828125 20.28643798828125 -78.8875732421875 18.562255859375 -78.84445190429688 C 3.1737060546875 -78.45977783203125 -13.25103759765625 -76.22509765625 -30.25582885742188 -72.20263671875 C -43.884033203125 -68.97891235351562 -57.91134643554688 -64.6065673828125 -71.94830322265625 -59.20697021484375 C -84.44937133789062 -54.39822387695312 -94.64276123046875 -49.6483154296875 -100.9926147460938 -46.51043701171875 C -105.6428833007812 -44.21240234375 -108.9665832519531 -42.42010498046875 -110.6458129882812 -41.49203491210938 L -43.37069702148438 292.3291015625 C -39.15609741210938 292.499755859375 -26.95675659179688 293.1289367675781 -10.84701538085938 295.1387634277344 C 7.6221923828125 297.4429626464844 35.18557739257812 302.0870971679688 61.61297607421875 311.1267700195312 C 88.01904296875 320.1590270996094 113.0722503662109 332.9172973632812 129.4393768310547 342.0296325683594 C 144.0241088867188 350.1495361328125 154.5051116943359 356.9045715332031 157.8295745849609 359.0894775390625 C 161.9156799316406 356.3816833496094 176.8280639648438 346.6034851074219 195.7028503417969 335.4625549316406 C 208.7087707519531 327.7857055664062 221.029052734375 320.969970703125 232.3213195800781 315.2046203613281 C 246.4679107666016 307.9820251464844 259.0419921875 302.3923645019531 269.6941223144531 298.5908203125 C 287.3749694824219 292.2809753417969 304.412109375 289.0815734863281 320.3323669433594 289.0815734863281 C 331.7009887695312 289.0815734863281 339.4059753417969 290.7418518066406 342.9442138671875 291.7145080566406 L 412.6026306152344 -39.75698852539062 C 409.0620727539062 -42.178955078125 396.8774108886719 -50.19256591796875 379.3532409667969 -58.28836059570312 C 367.0881958007812 -63.95455932617188 354.665771484375 -68.5394287109375 342.4311218261719 -71.91571044921875 C 327.1625671386719 -76.12918090820312 312.1481628417969 -78.46035766601562 297.8049011230469 -78.84457397460938 C 296.1965637207031 -78.88763427734375 294.5436401367188 -78.90951538085938 292.8921203613281 -78.90951538085938 C 278.7940979003906 -78.90951538085938 263.131103515625 -77.32757568359375 246.3382415771484 -74.20758056640625 C 232.8757019042969 -71.706298828125 218.6647033691406 -68.2171630859375 204.0999755859375 -63.8370361328125 C 179.2733764648438 -56.370849609375 161.8071746826172 -48.80422973632812 161.6337738037109 -48.728759765625 L 160.839111328125 -48.38262939453125 L 160.0431823730469 -48.725830078125 C 159.8683776855469 -48.80123901367188 142.2637176513672 -56.35137939453125 116.751708984375 -63.81777954101562 C 101.7687072753906 -68.2027587890625 87.04450988769531 -71.69598388671875 72.98825073242188 -74.2003173828125 C 55.44906616210938 -77.32513427734375 38.91217041015625 -78.9095458984375 23.8360595703125 -78.90951538085938 M 23.82449340820312 -80.9095458984375 C 90.44755554199219 -80.91311645507812 160.8351135253906 -50.5623779296875 160.8351135253906 -50.5623779296875 C 160.8351287841797 -50.5623779296875 234.2675170898438 -82.54718017578125 297.8585205078125 -80.84384155273438 C 361.4495239257812 -79.1405029296875 414.8322448730469 -40.64163208007812 414.8322448730469 -40.64163208007812 L 344.450439453125 294.2720947265625 C 344.450439453125 294.2720947265625 316.7119140625 283.9347534179688 270.3663024902344 300.4744873046875 C 224.0207214355469 317.01416015625 157.8317718505859 361.4905700683594 157.8317718505859 361.4905700683594 C 157.8317718505859 361.4905700683594 111.8131103515625 330.41162109375 60.96571350097656 313.0191040039062 C 10.11831665039062 295.6264953613281 -45.01934814453125 294.2720947265625 -45.01934814453125 294.2720947265625 L -112.8939514160156 -42.52365112304688 C -112.8939514160156 -42.52365112304688 -49.62094116210938 -79.1405029296875 18.51223754882812 -80.84384155273438 C 20.27545166015625 -80.88790893554688 22.0545654296875 -80.909423828125 23.82449340820312 -80.9095458984375 Z" stroke="none" fill="#333"/>
        </g>
        <g id="Group_4-2" data-name="Group 4">
          <g id="Path_4-2" data-name="Path 4" transform="translate(1007 139.636)" fill="#040404">
            <path d="M 158.8482666015625 359.8345336914062 L 158.8482666015625 -47.59097290039062 C 162.1810607910156 -49.04892730712891 179.2878723144531 -56.38163757324219 202.3804931640625 -63.62818145751953 C 217.4470977783203 -68.35612487792969 232.0759887695312 -72.12274169921875 245.8607635498047 -74.82346343994141 C 263.0718383789062 -78.19545745849609 279.0042724609375 -79.90518188476562 293.2156066894531 -79.90518188476562 C 294.7666015625 -79.90518188476562 296.3196716308594 -79.88462829589844 297.8317260742188 -79.84412384033203 C 312.2557678222656 -79.45779418945312 327.3506469726562 -77.11457061767578 342.6971130371094 -72.87963104248047 C 354.9842224121094 -69.48896026611328 367.4582214355469 -64.88512420654297 379.7726745605469 -59.19612884521484 C 390.7305908203125 -54.13379287719727 399.5284423828125 -49.13257217407227 404.9792785644531 -45.82851791381836 C 409.5310668945312 -43.06939697265625 412.55908203125 -41.00964736938477 413.71826171875 -40.20302200317383 L 343.7011108398438 292.9753112792969 C 342.6602172851562 292.659912109375 340.8887023925781 292.1780700683594 338.4165954589844 291.6953735351562 C 334.6461486816406 290.9591369628906 328.4480895996094 290.0816040039062 320.3323669433594 290.0816040039062 C 304.5270080566406 290.0816040039062 287.6028747558594 293.2613830566406 270.0302124023438 299.5326538085938 C 246.0144348144531 308.1033630371094 216.6351013183594 324.3292541503906 196.2177734375 336.431884765625 C 178.0016784667969 347.2297058105469 163.4856872558594 356.7542114257812 158.8482666015625 359.8345336914062 Z" stroke="none"/>
            <path d="M 293.2154846191406 -78.90518188476562 C 279.0728759765625 -78.90518188476562 263.2103881835938 -77.20272827148438 246.068603515625 -73.84518432617188 C 232.3233947753906 -71.15289306640625 217.7341003417969 -67.39712524414062 202.7059936523438 -62.6822509765625 C 180.7955322265625 -55.80807495117188 164.2822265625 -48.85488891601562 159.8482666015625 -46.93551635742188 L 159.8482666015625 357.9737548828125 C 165.6864929199219 354.1242065429688 179.1771850585938 345.3703918457031 195.7078857421875 335.5715942382812 C 216.1629943847656 323.4465942382812 245.603271484375 307.1883239746094 269.694091796875 298.5908203125 C 287.3749389648438 292.2809143066406 304.412109375 289.08154296875 320.3323974609375 289.08154296875 C 331.7009887695312 289.08154296875 339.4059753417969 290.7418823242188 342.9442443847656 291.7145385742188 L 412.6028442382812 -39.7576904296875 C 411.1793212890625 -40.73275756835938 408.361328125 -42.61114501953125 404.3868408203125 -45.01824951171875 C 398.952880859375 -48.30917358398438 390.1836547851562 -53.289794921875 379.265625 -58.32879638671875 C 367.0097045898438 -63.9852294921875 354.5975341796875 -68.56185913085938 342.373779296875 -71.93145751953125 C 327.1252746582031 -76.13491821289062 312.1300964355469 -78.46078491210938 297.804931640625 -78.84451293945312 C 296.3020935058594 -78.88479614257812 294.7579956054688 -78.90518188476562 293.2154846191406 -78.90518188476562 M 293.2154846191406 -80.90518188476562 C 294.7701416015625 -80.90518188476562 296.317626953125 -80.88507080078125 297.8584899902344 -80.84378051757812 C 361.4494934082031 -79.14047241210938 414.832275390625 -40.64163208007812 414.832275390625 -40.64163208007812 L 344.450439453125 294.2720947265625 C 344.450439453125 294.2720947265625 316.7119750976562 283.9347534179688 270.3663330078125 300.4744873046875 C 224.0207214355469 317.0142211914062 157.8482666015625 361.7048645019531 157.8482666015625 361.7048645019531 L 157.8482666015625 -48.242919921875 C 157.8482666015625 -48.242919921875 230.60986328125 -80.90518188476562 293.2154846191406 -80.90518188476562 Z" stroke="none" fill="#040404"/>
          </g>
          <path id="Path_5-2" data-name="Path 5" d="M59.754,4.452c31.25,0,66.24,19.623,66.24,19.623S89.222,8.581,57.972,9.687A260.959,260.959,0,0,0,.924,18.3l.38-6.336A246.446,246.446,0,0,1,59.754,4.452Z" transform="translate(1250 97)" fill="#fff"/>
          <path id="Path_6-2" data-name="Path 6" d="M57.561,4.608c31.25,0,66.673,18.146,66.673,18.146S88.811,8.192,57.561,9.3A275.084,275.084,0,0,0-1.531,18.445l.357-5.2S26.311,4.608,57.561,4.608Z" transform="translate(1250 132)" fill="#fff"/>
          <path id="Path_7-2" data-name="Path 7" d="M54.048,4.884c11.219,0,24.247,2.321,35.446,5.489a194.2,194.2,0,0,1,33.878,13.175S93.071,11.146,62.84,9.5s-61.4,8.182-61.4,8.182l.507-5.787S22.8,4.884,54.048,4.884Z" transform="translate(1244 165.68)" fill="#fff"/>
          <path id="Path_8-2" data-name="Path 8" d="M52.759,4.576c11.219,0,25.537,2.629,36.736,5.8C108.658,15.8,120.2,23.952,120.2,23.952S93.071,11.146,62.84,9.5s-60.392,6.28-60.392,6.28V10.442S21.509,4.576,52.759,4.576Z" transform="translate(1239 199.877)" fill="#fff"/>
          <path id="Path_9-2" data-name="Path 9" d="M57.025,8.61c25.3,3.924,46.607,17.527,46.607,17.527S78.881,12.917,48.65,11.271.419,15.117.419,15.117L-.637,11.738S31.729,4.686,57.025,8.61Z" transform="translate(1248.172 233.877)" fill="#fff"/>
          <path id="Path_10-2" data-name="Path 10" d="M57.543,8.934a88.85,88.85,0,0,1,33.9,16.045s-13.81-9.5-35.344-13.511S5.3,8.934,5.3,8.934l5.55-2.292S37.4,4.35,57.543,8.934Z" transform="translate(1251.172 270.061)" fill="#fff"/>
          <path id="Path_11-2" data-name="Path 11" d="M49.818,7.672A100.005,100.005,0,0,1,91.439,24.979a119.249,119.249,0,0,0-43.19-13.567C23.879,8.865-6.042,14.79-6.042,14.79V9.482S25.447,3.8,49.818,7.672Z" transform="translate(1242.936 301.061)" fill="#fff"/>
          <path id="Path_12-2" data-name="Path 12" d="M42.047,11.56A87.043,87.043,0,0,1,76.673,28.692s-17.325-10.426-38-13.9-44.891-.27-44.891-.27l-2.1-4.171S21.369,6.758,42.047,11.56Z" transform="translate(1256.948 335.056)" fill="#fff"/>
          <path id="Path_13-2" data-name="Path 13" d="M51.191,4.151c27.417,3.234,51.381,18.758,51.381,18.758S74.248,12.067,47.317,9.973s-56.771,5.34-56.771,5.34l.459-4.964S23.774.917,51.191,4.151Z" transform="translate(1223.948 376.056)" fill="#fff"/>
        </g>
        <g id="Group_3-2" data-name="Group 3" transform="translate(1016.32 -68.689)">
          <path id="Path_2-3" data-name="Path 2" d="M37.27,0C57.854,0,74.54,17.034,74.54,38.046S57.854,76.093,37.27,76.093,0,59.059,0,38.046,16.686,0,37.27,0Z" transform="translate(104.008 126.397)" fill="#333"/>
          <path id="Path_1-4" data-name="Path 1" d="M241.718-119.746s-5,71.813-24.695,122.589S150.1,72.707,150.1,72.707,120.884,54.74,83.623,53.2,3.44,62.6,3.44,62.6,119.928,75.82,115.294,136.829-5.1,347.8-5.1,347.8l156.2-96.915s4.546-.872,4.546,45.271-3.287,155.792-3.287,155.792S199.346,327.7,220.583,186.573,241.718-119.746,241.718-119.746Z" transform="translate(-2.544 132.689)" fill="#040404"/>
        </g>
        <g id="Group_2-2" data-name="Group 2" transform="translate(1020.32 -78.689)">
          <path id="Path_2-4" data-name="Path 2" d="M42.733,0c23.6,0,42.733,19.531,42.733,43.623S66.334,87.247,42.733,87.247,0,67.716,0,43.623,19.132,0,42.733,0Z" transform="translate(93.081 120.82)" fill="#9a901f"/>
          <path id="Path_1-5" data-name="Path 1" d="M237.941-136.175S230.487-46.157,210.794,4.619s-60.7,68.088-60.7,68.088S120.884,54.74,83.623,53.2,3.44,62.6,3.44,62.6,119.928,75.82,115.294,136.829-7.691,346.466-7.691,346.466L148.4,253.085s7.236-3.07,7.236,43.072-9.3,157.472-9.3,157.472S199.346,327.7,220.583,186.573,237.941-136.175,237.941-136.175Z" transform="translate(-2.544 132.689)" fill="#9a901f"/>
        </g>
        <g id="Group_1-2" data-name="Group 1" transform="translate(-2.453 6)">
          <ellipse id="Ellipse_1-2" data-name="Ellipse 1" cx="24" cy="24.5" rx="24" ry="24.5" transform="translate(1204 225)" fill="#bd3226"/>
          <path id="Path_1-6" data-name="Path 1" d="M2.551-132.689S5.91-81.511,17.333-52.059s35.359,38.51,35.359,38.51a92.389,92.389,0,0,1,37.4-9.652c21.614-.9,44.6,4.738,44.6,4.738s-64.5,6.719-61.817,42.107,65.4,115.571,65.4,115.571L51.825,87.7s-3.584-4.368-3.584,22.4,3.584,84.662,3.584,84.662S26.516,138.208,14.2,56.345,2.551-132.689,2.551-132.689Z" transform="translate(1168.5 286)" fill="#bd3226"/>
        </g>
      </g>
      <text id="EduLife-2" data-name="EduLife" transform="translate(168.568 798.063)" fill="#bd3226" font-size="176" font-family="MonotypeCorsiva, Monotype Corsiva"><tspan x="0" y="0">EduLife</tspan></text>
    </g>
  </g>
</svg>
